<svg width="1280" height="720" xmlns="http://www.w3.org/2000/svg" xmlns:xlink="http://www.w3.org/1999/xlink" overflow="hidden"><defs><clipPath id="clip0"><rect x="0" y="0" width="1280" height="720"/></clipPath><clipPath id="clip1"><rect x="964" y="216" width="285" height="293"/></clipPath><clipPath id="clip2"><rect x="964" y="216" width="285" height="293"/></clipPath><clipPath id="clip3"><rect x="964" y="216" width="285" height="293"/></clipPath><linearGradient x1="371.531" y1="30.5303" x2="577.469" y2="231.47" gradientUnits="userSpaceOnUse" spreadMethod="reflect" id="fill4"><stop offset="0" stop-color="#95ABEA"/><stop offset="0.5" stop-color="#BFCBF0"/><stop offset="1" stop-color="#E0E5F7"/></linearGradient><linearGradient x1="374.531" y1="259.53" x2="580.469" y2="460.47" gradientUnits="userSpaceOnUse" spreadMethod="reflect" id="fill5"><stop offset="0" stop-color="#95ABEA"/><stop offset="0.5" stop-color="#BFCBF0"/><stop offset="1" stop-color="#E0E5F7"/></linearGradient><linearGradient x1="374.531" y1="488.53" x2="580.469" y2="689.47" gradientUnits="userSpaceOnUse" spreadMethod="reflect" id="fill6"><stop offset="0" stop-color="#95ABEA"/><stop offset="0.5" stop-color="#BFCBF0"/><stop offset="1" stop-color="#E0E5F7"/></linearGradient><linearGradient x1="663.531" y1="30.5303" x2="869.469" y2="231.47" gradientUnits="userSpaceOnUse" spreadMethod="reflect" id="fill7"><stop offset="0" stop-color="#95ABEA"/><stop offset="0.5" stop-color="#BFCBF0"/><stop offset="1" stop-color="#E0E5F7"/></linearGradient><linearGradient x1="663.531" y1="488.53" x2="869.469" y2="689.47" gradientUnits="userSpaceOnUse" spreadMethod="reflect" id="fill8"><stop offset="0" stop-color="#95ABEA"/><stop offset="0.5" stop-color="#BFCBF0"/><stop offset="1" stop-color="#E0E5F7"/></linearGradient><linearGradient x1="663.531" y1="261.53" x2="869.469" y2="462.47" gradientUnits="userSpaceOnUse" spreadMethod="reflect" id="fill9"><stop offset="0" stop-color="#95ABEA"/><stop offset="0.5" stop-color="#BFCBF0"/><stop offset="1" stop-color="#E0E5F7"/></linearGradient><clipPath id="clip10"><rect x="13" y="216" width="285" height="292"/></clipPath><clipPath id="clip11"><rect x="13" y="216" width="285" height="292"/></clipPath><clipPath id="clip12"><rect x="13" y="216" width="285" height="292"/></clipPath><linearGradient x1="213.821" y1="71.3212" x2="95.1188" y2="190.024" gradientUnits="userSpaceOnUse" spreadMethod="pad" id="fill13"><stop offset="0" stop-color="#37AEE2"/><stop offset="1" stop-color="#1E96C8"/></linearGradient><linearGradient x1="157.373" y1="145.021" x2="192.954" y2="187.442" gradientUnits="userSpaceOnUse" spreadMethod="pad" id="fill14"><stop offset="0" stop-color="#EFF7FC"/><stop offset="1" stop-color="#FFFFFF"/></linearGradient></defs><g clip-path="url(#clip0)"><rect x="0" y="0" width="1280" height="720" fill="#FFFFFF"/><g clip-path="url(#clip1)"><g clip-path="url(#clip2)"><g clip-path="url(#clip3)"><path d="M253.333 0 31.6667 0C14.1788 0 0 14.1788 0 31.6667L0 205.833 285 205.833 285 31.6667C285 14.1788 270.821 0 253.333 0Z" stroke="#000000" stroke-width="2" fill="#226699" transform="matrix(1 0 0 1.02807 964 216)"/><path d="M79.1667 285 79.1667 55.4167 110.833 23.75 126.667 23.75 158.333 55.4167 158.333 285ZM261.25 87.0833C261.25 79.1667 253.333 79.1667 253.333 79.1667L197.917 79.1667C197.917 79.1667 190 79.1667 190 87.0833L190 285 261.25 285 261.25 87.0833Z" stroke="#000000" stroke-width="2" fill="#3F484C" transform="matrix(1 0 0 1.02807 964 216)"/><path d="M221.667 150.417C221.667 142.5 213.75 142.5 213.75 142.5L150.417 142.5C142.5 142.5 142.5 150.417 142.5 150.417L142.5 285 221.667 285 221.667 150.417ZM87.0833 166.25 47.5 166.25 47.5 110.833C47.5 110.833 47.5 102.917 39.5833 102.917L0 102.917 0 253.333C0 270.821 14.1788 285 31.6667 285L95 285 95 174.167C95 174.167 95 166.25 87.0833 166.25ZM253.333 197.917C245.417 197.917 245.417 205.833 245.417 205.833L245.417 285 253.333 285C270.821 285 285 270.821 285 253.333L285 197.917 253.333 197.917Z" stroke="#000000" stroke-width="2" fill="#292F33" transform="matrix(1 0 0 1.02807 964 216)"/><path d="M63.3333 245.417 79.1667 245.417 79.1667 261.25 63.3333 261.25ZM63.3333 182.083 79.1667 182.083 79.1667 197.917 63.3333 197.917ZM47.5 213.75 63.3333 213.75 63.3333 229.583 47.5 229.583ZM126.667 71.25 142.5 71.25 142.5 87.0833 126.667 87.0833ZM126.667 102.917 142.5 102.917 142.5 118.75 126.667 118.75ZM110.833 134.583 126.667 134.583 126.667 150.417 110.833 150.417ZM190 158.333 205.833 158.333 205.833 174.167 190 174.167ZM174.167 190 190 190 190 205.833 174.167 205.833ZM158.333 237.5 174.167 237.5 174.167 253.333 158.333 253.333ZM229.583 95 245.417 95 245.417 110.833 229.583 110.833ZM229.583 126.667 245.417 126.667 245.417 142.5 229.583 142.5Z" stroke="#000000" stroke-width="2" fill="#FFCC4D" transform="matrix(1 0 0 1.02807 964 216)"/><path d="M87.0833 19.7917C87.0833 21.9778 85.3111 23.75 83.125 23.75 80.9389 23.75 79.1667 21.9778 79.1667 19.7917 79.1667 17.6055 80.9389 15.8333 83.125 15.8333 85.3111 15.8333 87.0833 17.6055 87.0833 19.7917Z" stroke="#000000" stroke-width="2" fill="#FFFFFF" transform="matrix(1 0 0 1.02807 964 216)"/><path d="M63.3333 91.0417C63.3333 93.2278 61.5611 95 59.375 95 57.1889 95 55.4167 93.2278 55.4167 91.0417 55.4167 88.8555 57.1889 87.0833 59.375 87.0833 61.5611 87.0833 63.3333 88.8555 63.3333 91.0417Z" stroke="#000000" stroke-width="2" fill="#FFFFFF" transform="matrix(1 0 0 1.02807 964 216)"/><path d="M182.083 39.5833C182.083 43.9556 178.539 47.5 174.167 47.5 169.794 47.5 166.25 43.9556 166.25 39.5833 166.25 35.2111 169.794 31.6667 174.167 31.6667 178.539 31.6667 182.083 35.2111 182.083 39.5833Z" stroke="#000000" stroke-width="2" fill="#FFFFFF" transform="matrix(1 0 0 1.02807 964 216)"/><path d="M213.75 43.5417C213.75 45.7278 211.978 47.5 209.792 47.5 207.606 47.5 205.833 45.7278 205.833 43.5417 205.833 41.3555 207.606 39.5833 209.792 39.5833 211.978 39.5833 213.75 41.3555 213.75 43.5417Z" stroke="#000000" stroke-width="2" fill="#FFFFFF" transform="matrix(1 0 0 1.02807 964 216)"/><path d="M253.333 23.75C253.333 28.1223 249.789 31.6667 245.417 31.6667 241.044 31.6667 237.5 28.1223 237.5 23.75 237.5 19.3777 241.044 15.8333 245.417 15.8333 249.789 15.8333 253.333 19.3777 253.333 23.75Z" stroke="#000000" stroke-width="2" fill="#FFFFFF" transform="matrix(1 0 0 1.02807 964 216)"/><path d="M253.333 59.375C253.333 61.5611 251.561 63.3333 249.375 63.3333 247.189 63.3333 245.417 61.5611 245.417 59.375 245.417 57.1889 247.189 55.4167 249.375 55.4167 251.561 55.4167 253.333 57.1889 253.333 59.375Z" stroke="#000000" stroke-width="2" fill="#FFFFFF" transform="matrix(1 0 0 1.02807 964 216)"/><path d="M51.4583 55.4167C40.5254 55.4167 31.6667 46.5579 31.6667 35.625 31.6667 26.6792 37.6437 19.2058 45.79 16.7596 43.8029 16.2133 41.7446 15.8333 39.5833 15.8333 26.4654 15.8333 15.8333 26.4654 15.8333 39.5833 15.8333 52.7012 26.4654 63.3333 39.5833 63.3333 47.1754 63.3333 53.8571 59.7075 58.2113 54.1579 56.0896 54.9258 53.8413 55.4167 51.4583 55.4167Z" stroke="#000000" stroke-width="2" fill="#FFFFFF" transform="matrix(1 0 0 1.02807 964 216)"/></g></g></g><path d="M374 131C374 74.1147 418.995 28 474.5 28 530.005 28 575 74.1147 575 131 575 187.885 530.005 234 474.5 234 418.995 234 374 187.885 374 131Z" stroke="#2F528F" stroke-width="2" stroke-miterlimit="8" fill="url(#fill4)" fill-rule="evenodd"/><path d="M377 360C377 303.115 421.995 257 477.5 257 533.005 257 578 303.115 578 360 578 416.885 533.005 463 477.5 463 421.995 463 377 416.885 377 360Z" stroke="#2F528F" stroke-width="2" stroke-miterlimit="8" fill="url(#fill5)" fill-rule="evenodd"/><path d="M377 589C377 532.115 421.995 486 477.5 486 533.005 486 578 532.115 578 589 578 645.885 533.005 692 477.5 692 421.995 692 377 645.885 377 589Z" stroke="#2F528F" stroke-width="2" stroke-miterlimit="8" fill="url(#fill6)" fill-rule="evenodd"/><path d="M666 131C666 74.1147 710.995 28 766.5 28 822.005 28 867 74.1147 867 131 867 187.885 822.005 234 766.5 234 710.995 234 666 187.885 666 131Z" stroke="#2F528F" stroke-width="2" stroke-miterlimit="8" fill="url(#fill7)" fill-rule="evenodd"/><path d="M666 589C666 532.115 710.995 486 766.5 486 822.005 486 867 532.115 867 589 867 645.885 822.005 692 766.5 692 710.995 692 666 645.885 666 589Z" stroke="#2F528F" stroke-width="2" stroke-miterlimit="8" fill="url(#fill8)" fill-rule="evenodd"/><path d="M666 362C666 305.115 710.995 259 766.5 259 822.005 259 867 305.115 867 362 867 418.885 822.005 465 766.5 465 710.995 465 666 418.885 666 362Z" stroke="#2F528F" stroke-width="2" stroke-miterlimit="8" fill="url(#fill9)" fill-rule="evenodd"/><path d="M0 0 76.4102 231.703" stroke="#4472C4" stroke-width="2" stroke-miterlimit="8" fill="none" fill-rule="evenodd" transform="matrix(1 0 0 -1 298 362.703)"/><path d="M0 0 79.2057 2.32766" stroke="#4472C4" stroke-width="2" stroke-miterlimit="8" fill="none" fill-rule="evenodd" transform="matrix(1 0 0 -1 298 362.328)"/><path d="M867 131 963.524 362.78" stroke="#4472C4" stroke-width="2" stroke-miterlimit="8" fill="none" fill-rule="evenodd"/><path d="M298 362 377.206 589.048" stroke="#4472C4" stroke-width="2" stroke-miterlimit="8" fill="none" fill-rule="evenodd"/><path d="M0 0 97.1095 226.971" stroke="#4472C4" stroke-width="2" stroke-miterlimit="8" fill="none" fill-rule="evenodd" transform="matrix(1 0 0 -1 867 588.971)"/><path d="M867 362 964.109 362" stroke="#4472C4" stroke-width="2" stroke-miterlimit="8" fill="none" fill-rule="evenodd"/><g clip-path="url(#clip10)"><g clip-path="url(#clip11)"><g clip-path="url(#clip12)"><path d="M285 142.5C285 221.201 221.201 285 142.5 285 63.7994 285-1.68754e-14 221.201-1.68754e-14 142.5-5.06262e-14 63.7994 63.7994-3.37508e-14 142.5-3.37508e-14 221.201-6.75016e-14 285 63.7994 285 142.5Z" stroke="#000000" stroke-width="2" fill="url(#fill13)" transform="matrix(1 0 0 1.02456 13 216)"/><path d="M116.375 207.812C111.758 207.812 112.543 206.069 110.951 201.673L97.375 156.996 201.875 95" stroke="#000000" stroke-width="2" fill="#C8DAEA" transform="matrix(1 0 0 1.02456 13 216)"/><path d="M116.375 207.812C119.938 207.812 121.511 206.183 123.5 204.25L142.5 185.775 118.8 171.483" stroke="#000000" stroke-width="2" fill="#A9C9DD" transform="matrix(1 0 0 1.02456 13 216)"/><path d="M118.798 171.487 176.225 213.915C182.779 217.531 187.507 215.658 189.14 207.832L212.516 97.6754C214.909 88.0804 208.859 83.7271 202.589 86.5735L65.3256 139.502C55.9562 143.26 56.012 148.487 63.6179 150.816L98.8428 161.811 180.392 110.363C184.242 108.028 187.776 109.282 184.876 111.857" stroke="#000000" stroke-width="2" fill="url(#fill14)" transform="matrix(1 0 0 1.02456 13 216)"/></g></g></g><path d="M575 131 666.163 131" stroke="#4472C4" stroke-width="2" stroke-miterlimit="8" fill="none" fill-rule="evenodd"/><path d="M575 131 665.577 362.78" stroke="#4472C4" stroke-width="2" stroke-miterlimit="8" fill="none" fill-rule="evenodd"/><path d="M665.577 589.751 575 131" stroke="#4472C4" stroke-width="2" stroke-miterlimit="8" fill="none" fill-rule="evenodd"/><path d="M0 0 88.3676 229.375" stroke="#4472C4" stroke-width="2" stroke-miterlimit="8" fill="none" fill-rule="evenodd" transform="matrix(1 0 0 -1 578 360.375)"/><path d="M0 0 87.7818 226.971" stroke="#4472C4" stroke-width="2" stroke-miterlimit="8" fill="none" fill-rule="evenodd" transform="matrix(1 0 0 -1 578 588.971)"/><path d="M665.782 589.375 578 360" stroke="#4472C4" stroke-width="2" stroke-miterlimit="8" fill="none" fill-rule="evenodd"/><path d="M578 589 665.782 589" stroke="#4472C4" stroke-width="2" stroke-miterlimit="8" fill="none" fill-rule="evenodd"/><path d="M665.782 362.404 578 360" stroke="#4472C4" stroke-width="2" stroke-miterlimit="8" fill="none" fill-rule="evenodd"/><path d="M0 0 88.3676 458.751" stroke="#4472C4" stroke-width="2" stroke-miterlimit="8" fill="none" fill-rule="evenodd" transform="matrix(1 0 0 -1 578 589.751)"/></g></svg>